# xmcd
#
# Track frame offsets: 
#        150
#        12817
#        31935
#        45440
#        72490
#        74170
#        86217
#        99352
#        124625
#        153400
#        167610
#        187005
#        191370
#        199845
#        204997
#        211950
#        220437
#        223112
#        228122
#        232020
#        241325
#        248650
#        252642
#        258127
#        260515
#        264582
#        270362
#        276432
#        285012
#        289257
#        290907
#        293305
#        297930
#        301480
#        316982
#        335572
#
# Disc length: 4506 seconds
#
# Revision: 0
# Processed by: cddbd v1.5.2PL0 Copyright (c) Steve Scherf et al.
# Submitted via: ExactAudioCopy v0.95b3
#
DISCID=2d119824
DTITLE=Genesis  - Genesis In The Beginning - Vol.4 - Definitive Editio
DTITLE=n Digital Remastered and Bonus Tracks  FLAC
DYEAR=1900
DGENRE=
TTITLE0=Happy The Man, Demo
TTITLE1=Silver Song, Demo,Phil On Vocals
TTITLE2=Only Your Love-Demo,Phil On Vocals
TTITLE3=Studio Improvisation 1(Instrumental)
TTITLE4=Studio Improvisation 2
TTITLE5=Making Of The Battle Of Epping Forest-Different Instrumental T
TTITLE5=akes1
TTITLE6=Making Of The Battle Of Epping Forest-Different Instrumental T
TTITLE6=akes 2
TTITLE7=Making Of The Battle Of Epping Forest-Different Instrumental T
TTITLE7=akes 3
TTITLE8=Making Of The Battle Of Epping Forest-Different Instrumental T
TTITLE8=akes 4
TTITLE9=Making Of The Battle Of Epping Forest-Different Instrumental T
TTITLE9=akes 5
TTITLE10=Making Of The Battle Of Epping Forest-Different Instrumental 
TTITLE10=Takes 6
TTITLE11=Making Of The Battle Of Epping Forest-Different Instrumental 
TTITLE11=Takes 7
TTITLE12=Making Of The Battle Of Epping Forest-Different Instrumental 
TTITLE12=Takes 8
TTITLE13=Making Of The Battle Of Epping Forest-Different Instrumental 
TTITLE13=Takes 9
TTITLE14=Making Of The Battle Of Epping Forest-Different Instrumental 
TTITLE14=Takes 10
TTITLE15=Making Of The Battle Of Epping Forest-Different Instrumental 
TTITLE15=Takes 11
TTITLE16=Making Of The Battle Of Epping Forest-Different Instrumental 
TTITLE16=Takes 12
TTITLE17=Making Of The Battle Of Epping Forest-Different Instrumental 
TTITLE17=Takes 13
TTITLE18=Making Of The Battle Of Epping Forest-Different Instrumental 
TTITLE18=Takes 14
TTITLE19=Making Of The Battle Of Epping Forest-Different Instrumental 
TTITLE19=Takes 15
TTITLE20=Making Of The Battle Of Epping Forest-Different Instrumental 
TTITLE20=Takes 16
TTITLE21=Making Of The Battle Of Epping Forest-Different Instrumental 
TTITLE21=Takes 17
TTITLE22=Making Of The Battle Of Epping Forest-Different Instrumental 
TTITLE22=Takes 18
TTITLE23=STUDIO IMPROVISATION 3-THE CINEMA SHOW fast material
TTITLE24=The Cinema Show (Instrumental)Take 1
TTITLE25=The Cinema Show (Instrumental)Take 2
TTITLE26=The Cinema Show (Instrumental)Take 3
TTITLE27=The Cinema Show (Instrumental)Take 4
TTITLE28=Dancing With The Moonlit Knight-Studio Takes 1
TTITLE29=Dancing With The Moonlit Knight-Studio Takes 2
TTITLE30=Dancing With The Moonlit Knight-Studio Takes 3
TTITLE31=The Last Time (Jagger\\Richards)
TTITLE32=You Really Got Me (Davies)
TTITLE33=I Know What I Like (Studio Take 1, No Lyrics)
TTITLE34=I Know What I Like (Studio Take 2, No Lyrics)
TTITLE35=The Colony Of Slipperman (Studio Take)
EXTD=
EXTT0=
EXTT1=
EXTT2=
EXTT3=
EXTT4=
EXTT5=
EXTT6=
EXTT7=
EXTT8=
EXTT9=
EXTT10=
EXTT11=
EXTT12=
EXTT13=
EXTT14=
EXTT15=
EXTT16=
EXTT17=
EXTT18=
EXTT19=
EXTT20=
EXTT21=
EXTT22=
EXTT23=
EXTT24=
EXTT25=
EXTT26=
EXTT27=
EXTT28=
EXTT29=
EXTT30=
EXTT31=
EXTT32=
EXTT33=
EXTT34=
EXTT35=
PLAYORDER=
